<svg xmlns="http://www.w3.org/2000/svg" id="Camada_1" data-name="Camada 1" viewBox="0 0 841.89 263.14"><defs><style>      .cls-1 {        fill: #fff;        stroke-width: 0px;      }    </style></defs><path class="cls-1" d="m14.35,149.73c0-24.83-.07-49.66.04-74.49.04-8.2,1.64-16.17,4.86-23.76,5.24-12.37,15.01-19.23,27.61-22.71,9.39-2.59,19.02-3.36,28.68-3.41,22.73-.13,45.45-.05,68.18-.04,7.58,0,10.85,3.27,10.88,10.81.01,3.64.06,7.29-.04,10.93-.14,4.87-3.14,8.04-8.02,8.55-1.26.13-2.54.13-3.81.13-23.07.01-46.13-.07-69.2.08-4.96.03-10.07.31-14.85,1.5-9.14,2.27-13.77,8.1-14.07,17.54-.35,11.01-.26,22.03-.13,33.04.07,5.79,4.23,9.31,10.49,9.32,17.38.02,34.77,0,52.15,0,12.47,0,24.93,0,37.4,0,6.06,0,9.41,3.31,9.47,9.41.04,3.64.03,7.29,0,10.93-.06,6.32-3.66,9.93-9.95,9.93-29.51,0-59.02.14-88.53-.1-7.47-.06-11.25,4.51-11.2,11.2.2,22.63.08,45.25.06,67.88,0,1.35-.04,2.72-.26,4.05-.69,4.16-3.8,7.05-7.99,7.18-4.57.14-9.16.13-13.73,0-4.28-.13-7.48-3.16-8.04-7.4-.17-1.25-.17-2.53-.17-3.8,0-25.59,0-51.19,0-76.78.07,0,.13,0,.2,0Z"></path><path class="cls-1" d="m272.79,237.46c23.18-25.36,46.07-50.4,69.1-75.6-2.91-3.62-5.68-7.13-8.51-10.59-11.97-14.62-23.95-29.22-35.94-43.82-1.11-1.35-2.51-2.91-1.24-4.45.82-1,2.75-1.5,4.19-1.52,11.87-.15,23.74-.12,35.61-.17,1.05,0,2.11-.15,3.7-.27-.86-1.18-1.36-1.94-1.93-2.62-16.23-19.34-32.47-38.67-48.71-58-2.21-2.63-4.99-3.82-8.47-3.83-12.29-.04-24.59-.08-36.87-.38-5.77-.14-10.84-4.47-12.75-10.29.93-.11,1.82-.31,2.71-.31,19.07-.04,38.15-.24,57.22,0,8.23.11,16.31,1.65,23.8,5.52,7.49,3.87,13.43,9.51,18.37,16.14,9.67,12.96,19.01,26.18,28.59,39.21,4.27,5.8,8.85,11.36,13.2,17.09,1.05,1.39,2.26,1.75,3.92,1.75,10.43-.01,20.85.06,31.28.11,3.79.02,6.66,1.84,8.76,4.83,1.72,2.45,3.84,4.11,6.66,5.19,4.69,1.8,6.11,4.89,5.54,10.6-3.61-.47-7.24-1.41-10.83-1.32-8.99.24-16.76,3.49-22.9,10.36-30.1,33.67-60.23,67.31-90.41,100.91-.76.84-2.07,1.68-3.13,1.69-9.75.13-19.5.08-29.25.07-.38,0-.77-.13-1.7-.31Zm137.63-126.41c-2.41,0-4.07-.11-5.7.04-1.17.1-2.31.54-3.46.83.65.94,1.27,1.89,1.96,2.8.3.39.73.9,1.15.95.82.1,1.97.25,2.45-.2,1.2-1.09,2.1-2.51,3.59-4.41Z"></path><path class="cls-1" d="m168.38,111.14c0-25.67,0-51.34,0-77.01,0-1.19-.02-2.37.05-3.56.2-3.28,1.83-5.14,5.06-5.21,6.69-.14,13.4-.14,20.09,0,3.57.07,5.13,2.1,5.13,6.11,0,30.75,0,61.51,0,92.26,0,19.65-.06,39.31.05,58.96.02,3.7.39,7.45,1.15,11.07,1.39,6.69,5.75,10.91,12.33,12.42,3.93.9,8.03,1.38,12.06,1.41,17.29.15,34.59.09,51.88.05,2.25,0,4.27.23,5.33,2.54,1.13,2.47.09,4.36-1.62,6.16-6.01,6.32-11.99,12.68-17.95,19.06-1.4,1.5-2.91,2.43-5.07,2.41-13.48-.13-26.99.44-40.42-.43-16.85-1.1-31.52-7.23-40.73-22.53-5.88-9.77-7.31-20.64-7.33-31.78-.03-23.98,0-47.95,0-71.93h-.01Z"></path><path class="cls-1" d="m378.4,97.74c6.61-7.52,12.84-14.54,18.99-21.62,6.39-7.35,12.68-14.78,19.07-22.13,6.94-7.99,15.66-12.09,26.34-12.05,16.18.07,32.36,0,48.54.02.74,0,1.49.11,2.64.19-.94,2.59-2.07,4.85-4.48,5.66-3.41,1.15-6.98,2.36-10.51,2.48-7.78.27-15.59-.02-23.37-.3-3.61-.13-6.27.96-8.57,3.84-11.2,14.02-22.56,27.92-33.81,41.91-1.52,1.88-3.28,2.71-5.69,2.67-8.39-.13-16.78-.13-25.17-.23-1.16-.01-2.32-.25-3.99-.45Z"></path><path class="cls-1" d="m715.36,156.72c3.41,5.79,6.78,11.51,10.43,17.7-3.19,0-5.86.12-8.51-.08-.7-.05-1.51-.98-1.94-1.71-2.5-4.22-4.91-8.5-7.36-12.75-.38-.66-.8-1.8-1.25-1.82-3.52-.19-7.06-.2-10.59-.12-.19,0-.49,1.32-.5,2.03-.05,4.06-.08,8.13,0,12.19.04,1.74-.54,2.33-2.33,2.34-6.4.04-6.4.11-6.4-6.39,0-11.18.06-22.36-.02-33.54-.02-2.02.59-2.6,2.59-2.55,7.79.2,15.59.08,23.37.4,6.2.25,9.96,3.74,10.88,9.4,1.12,6.88-1.38,11.78-7.26,14.26-.3.13-.57.32-1.12.64Zm-11.83-6.35s0-.04,0-.05c2.03,0,4.07.06,6.1-.01,3.76-.12,5.64-1.94,5.68-5.38.04-3.46-1.76-5.36-5.55-5.49-4.06-.14-8.13-.01-12.19-.08-1.39-.02-2,.46-1.96,1.9.06,2.37.08,4.74-.01,7.11-.06,1.57.58,2.1,2.1,2.03,1.94-.09,3.89-.02,5.84-.02Z"></path><path class="cls-1" d="m621.31,132.37v6.59c-4.28,0-8.41-.04-12.54.01-2.79.04-5.6.04-8.36.38-4.42.54-7.36,3.02-7.83,7.36-.47,4.33-.45,8.78.03,13.11.47,4.2,3.45,6.35,8.41,7.11.75.12,1.52.13,2.28.13,2.95.01,5.9,0,9.08,0v-10.41c-2.89,0-5.83-.12-8.75.04-2.16.12-3.03-.43-2.93-2.78.24-5.27-.56-4.45,4.44-4.51,5.32-.07,10.64-.01,16.14-.01v24.89c-.76.05-1.57.16-2.38.16-6.02.01-12.06.3-18.06-.06-10.74-.64-17.6-5.53-18.29-17.57-.24-4.24.03-8.67,1.05-12.77,1.73-7.01,7.38-11.36,14.62-11.61,7.6-.26,15.22-.06,23.09-.06Z"></path><path class="cls-1" d="m756.54,175.19c-2.68-.32-5.43-.35-8.03-1.01-7.99-2.03-12.35-7.29-13.15-16.33-.36-4.08-.19-8.32.53-12.35,1.29-7.13,5.72-11.67,12.91-13.39,5.11-1.22,10.17-1.24,15.29.04,5.63,1.4,9.48,4.79,11.51,10.12,2.8,7.33,2.8,14.78-.03,22.08-2.92,7.54-9.25,10.07-16.73,10.61-.76.05-1.52,0-2.29,0,0,.07-.02.15-.03.22Zm11.91-22.15c-.35-2.16-.54-4.54-1.14-6.81-1.42-5.38-4.59-7.68-10.59-8.01-5.27-.29-9.05,2-11.06,6.76-1.97,4.65-1.46,9.39-.68,14.21.82,5.08,3.45,7.84,8.64,8.79,7.09,1.3,12.24-1.68,13.85-8.72.45-1.97.64-3.99.98-6.23Z"></path><path class="cls-1" d="m523.61,132.56v6.81c-1.04,0-1.95,0-2.86,0-6.44,0-12.89,0-19.33.03-1.09,0-2.22.07-3.27.36-2.56.69-4.05,2.95-3.84,5.58.2,2.51,1.92,4.33,4.7,4.43,5,.18,10,.09,15,.19,1.51.03,3.06.15,4.51.54,4.6,1.26,7.15,4.64,7.24,9.5.03,1.77.11,3.6-.31,5.29-1.36,5.51-4.6,8.36-10.48,8.61-8.88.39-17.77.37-26.66.51-.24,0-.48-.12-.94-.23v-7.1c.97,0,1.94,0,2.92,0,6.78,0,13.56.05,20.34-.02,4.66-.05,7.16-3.09,5.9-6.93-.8-2.45-2.65-3.08-4.95-3.12-4.83-.09-9.66-.04-14.48-.32-9.93-.58-14.83-9.04-10.67-18.13,1.6-3.5,4.6-5.71,8.06-5.85,9.62-.4,19.26-.14,29.1-.14Z"></path><path class="cls-1" d="m789.24,167.07c7.64,0,14.92.01,22.2-.01,1.09,0,2.21-.04,3.26-.31,3.32-.83,4.4-2.39,4.08-5.66-.27-2.76-1.78-3.99-5.12-4.08-4.74-.13-9.49-.04-14.22-.32-9.35-.55-13.64-6.34-11.7-15.51,1.01-4.77,4.58-8.39,9.44-8.6,8.97-.39,17.95-.39,26.93-.43.55,0,1.11,1.03,1.63,1.61.09.1.02.33.02.5.02,6.31.39,5-4.86,5.08-6.02.09-12.03.03-18.05.04-2.21,0-4.24.48-5.58,2.43-2.37,3.45-.35,7.74,3.92,7.95,4.99.25,10,.03,14.99.2,1.91.07,3.9.38,5.69,1.04,3.24,1.19,5.33,3.55,5.68,7.13.15,1.6.25,3.22.16,4.81-.38,6.49-3.73,10.48-10.15,10.88-8.86.55-17.77.47-26.66.55-.55,0-1.52-.83-1.58-1.35-.19-1.9-.08-3.84-.08-5.96Z"></path><path class="cls-1" d="m546.29,149.4c1.71,0,3.46,0,5.22,0,5.43,0,10.86.12,16.28-.06,2.53-.09,3.4.82,3.05,3.2-.04.25-.03.51,0,.76.3,2.24-.49,3.13-2.92,3.07-6.27-.16-12.55-.05-18.82-.05-.91,0-1.82,0-2.68,0-1.28,6.21,1.89,10.57,7.88,10.87,4.4.22,8.81.13,13.22.16q3.29.03,3.31,3.41c0,.76.15,1.59-.09,2.27-.2.56-.88,1.37-1.34,1.36-6.51-.16-13.1.12-19.49-.85-7.82-1.18-12.49-6.51-13.55-14.74-.78-6.05-.67-12.18,2.26-17.87,2.67-5.2,6.98-8.04,12.7-8.41,5.74-.38,11.52-.28,17.27-.48,1.63-.05,2.27.47,2.26,2.15-.05,5.92.3,4.63-4.69,4.78-4.14.13-8.3.11-12.43.43-5.16.4-8.09,4.34-7.45,10Z"></path><path class="cls-1" d="m643.82,132.07c0,5.45,0,10.44,0,15.43,0,3.3.21,6.62-.02,9.91-.76,10.9,7.45,12.19,14.65,10.15,3.37-.95,4.95-3.64,5.01-8.24.1-7.62.03-15.25.07-22.88.02-5.16-.39-4.28,4.3-4.37,1.25-.03,2.51,0,3.89,0,.12.78.27,1.35.27,1.91-.03,9.07.02,18.13-.14,27.2-.14,7.92-5.17,13.11-13.06,13.24-4.96.08-9.98-.09-14.86-.88-4.48-.72-8.37-5.34-8.5-9.87-.28-9.99-.18-19.99-.14-29.99,0-.54.86-1.49,1.38-1.53,2.26-.17,4.53-.07,7.16-.07Z"></path><path class="cls-1" d="m329.32,96.75c-8.85,0-16.88.17-24.91-.07-4.37-.13-8.76-.71-13.06-1.48-4.55-.82-7.7-4.33-8.85-9.28.66-.06,1.29-.17,1.92-.17,11.02-.02,22.05-.1,33.07.03,1.41.02,3.15.78,4.13,1.79,2.57,2.67,4.81,5.66,7.71,9.17Z"></path><path class="cls-1" d="m304.25,66.86c-1.08.11-1.9.26-2.73.27-9.16.02-18.32.12-27.48-.01-6.43-.1-11.66-2.64-14.96-8.43-.32-.56-.5-1.2-.74-1.8.68-.22,1.35-.62,2.03-.63,6.27-.05,12.55.02,18.83-.05,2.87-.03,5.74-.4,8.62-.45,7.41-.12,13.26,3.78,16.44,11.1Z"></path><path class="cls-1" d="m245.39,41.93c1.02-.15,1.96-.41,2.9-.41,10.67-.05,21.34-.02,32.01-.13,2.06-.02,3.55.64,4.8,2.23,2.18,2.76,4.45,5.44,6.93,8.46-1.16.13-1.81.27-2.46.27-9.74.02-19.48.11-29.22,0-6.23-.06-12.75-4.63-14.98-10.43Z"></path><path class="cls-1" d="m316.25,81.31c-1.25,0-2.5,0-3.76,0-9.74.01-19.47.15-29.21,0-6.3-.1-10.51-3.75-12.15-10.19,4.5,0,8.93.07,13.36-.02,5.32-.11,10.66-.16,15.96-.58,4.76-.38,8.69.9,11.76,4.57,1.5,1.79,2.92,3.65,4.38,5.48-.11.25-.22.49-.34.74Z"></path><path class="cls-1" d="m455.01,89.75c-.46,4.09-5.33,8.21-9.57,8.31-8.77.22-17.55.06-26.68.06,2.64-4.45,5.33-8.5,10.81-8.64,8.19-.21,16.4-.05,24.6-.03.23,0,.46.16.84.3Z"></path><path class="cls-1" d="m427.13,86.46c1.67-2.27,2.87-4.37,4.54-5.99,1.18-1.14,2.98-2.27,4.52-2.3,9.03-.21,18.06-.1,27.11-.1-.14,3.83-2.8,7.08-6.26,7.89-2.29.54-4.67.95-7.01.97-6.93.06-13.86-.1-20.79-.19-.56,0-1.12-.14-2.11-.28Z"></path><path class="cls-1" d="m473.88,66.67c-2.42,5.83-6.45,8.66-12.37,8.58-7.54-.09-15.08-.24-22.63-.38-.49,0-.98-.13-1.49-.21,1.95-5.76,5.64-8.41,11.37-8.33,7.46.1,14.92.13,22.37.21.82,0,1.64.07,2.74.13Z"></path><path class="cls-1" d="m483.33,55.53c-1.86,4.75-5.28,7.77-10.37,7.94-8.59.28-17.2.08-25.8.08-.1-.25-.2-.51-.3-.76,1.64-2.19,3.12-4.55,5-6.52.88-.92,2.53-1.57,3.83-1.56,9.05.05,18.1.31,27.15.51.13,0,.26.16.49.31Z"></path><path class="cls-1" d="m563.89,104c2.11,3.61,4.09,7,6.1,10.45-4.4,1.19-5.14.91-7.17-2.59-.72-1.24-1.45-2.48-2.16-3.73-2.19-3.85-3-4.3-7.46-3.56-.6.1-1.44,1.09-1.49,1.72-.18,2.35-.06,4.73-.09,7.1-.02,2.11-1.66,1.48-2.8,1.52-1.12.04-2.47.36-2.46-1.59.04-8.03.02-16.06.02-24.55,2.54,0,4.96-.05,7.37.01,3.29.08,6.61-.02,9.85.43,3.34.46,5.07,2.48,5.47,5.44.58,4.23-.62,7.02-3.71,8.64-.37.19-.74.36-1.47.72Zm-12.26-10.88c0,1.97.07,3.56-.02,5.14-.08,1.46.57,1.93,1.94,1.9,2.28-.06,4.56-.03,6.84-.03,2.27,0,3.5-1.26,3.61-3.4.11-2.23-1.27-3.48-3.41-3.58-2.85-.13-5.7-.03-8.96-.03Z"></path><path class="cls-1" d="m721.71,114.57c-4.86.87-5.26.7-7.35-2.93-.63-1.1-1.44-2.15-1.84-3.33-1.25-3.77-4.08-4.38-7.42-3.76-.69.13-1.66,1.1-1.72,1.75-.21,2.35-.09,4.74-.1,7.11-.01,1.93-1.48,1.51-2.58,1.49-1.08-.02-2.61.48-2.61-1.46-.02-7.45-.02-14.91-.01-22.36,0-.66.1-1.32.16-2.04,5.68,0,11.25-.27,16.77.1,3.54.24,5.29,2.49,5.72,5.78.53,4.05-.66,6.68-3.78,8.37-.36.19-.71.41-1.33.77,2.03,3.49,4.01,6.89,6.11,10.5Zm-18.15-14.43c2.9,0,5.75.03,8.59-.01,2.09-.03,3.3-1.06,3.43-3.23.13-2.28-1-3.49-3.18-3.74-1.09-.12-2.19-.09-3.29-.1q-6.48-.02-5.56,7.08Z"></path><path class="cls-1" d="m525.43,88.22c8.65-.01,13.08,4.55,13.08,13.48,0,9.31-4.31,13.74-13.36,13.74-8.67,0-13.12-4.58-13.12-13.5,0-9.24,4.36-13.7,13.4-13.72Zm-.08,22.95c3.94.02,6.02-1.38,6.86-5.3.48-2.26.57-4.7.32-7-.46-4.18-2.95-6.32-6.82-6.41-4.28-.1-6.91,1.86-7.62,6.13-.35,2.12-.32,4.39.01,6.52.72,4.53,2.68,6.03,7.25,6.05Z"></path><path class="cls-1" d="m663.77,101.6c.13-11.3,10.76-17.34,20.76-11.79,2.86,1.59,4.7,4.09,5.07,7.21.38,3.22.49,6.6-.07,9.77-.88,4.92-4.22,7.72-9.25,8.36-.42.05-.84.11-1.26.16-9.93,1.11-15.36-3.77-15.24-13.7Zm20.6.31s-.03,0-.05,0c0-.51.01-1.02,0-1.52-.12-4.93-2.47-7.71-6.7-7.94-4.63-.26-7.35,1.97-7.99,6.88-.25,1.89-.12,3.88.13,5.78.6,4.54,2.68,6.1,7.74,6.06,3.71-.03,6.2-2.31,6.72-6.22.13-1,.1-2.03.15-3.04Z"></path><path class="cls-1" d="m595.67,104.11c2.02,3.47,3.99,6.86,5.98,10.29-3.96,1.3-5.23.87-7-2.24-.71-1.25-1.63-2.43-2.09-3.76-1.27-3.71-3.99-4.29-7.4-3.94-1.36.14-1.99.51-1.94,1.96.08,2.2-.07,4.4.04,6.6.1,1.94-1.07,1.97-2.44,1.93-1.32-.05-2.81.33-2.79-1.86.06-7.53.03-15.06.14-22.59,0-.57.85-1.6,1.31-1.61,5.07-.06,10.17-.24,15.22.18,3.92.32,5.54,2.34,6.05,6.01.58,4.13-.63,6.6-4.09,8.37-.29.15-.54.36-.99.67Zm-12.14-4.1c3.21,0,6.42.23,9.55-.14.97-.12,2.16-1.74,2.52-2.91.48-1.54-.27-3.24-2.08-3.44-3.36-.38-6.75-.4-10.25-.58,0,2.4-.01,4.17,0,5.93,0,.32.14.64.25,1.14Z"></path><path class="cls-1" d="m775.16,101.68c0-3.64-.07-7.27.06-10.91.02-.67.81-1.88,1.26-1.88,4.48-.09,9-.36,13.43.16,6.09.72,8.43,3.24,9.41,9.8.98,6.56-.12,12.15-5.11,14.43-1.8.82-3.83,1.44-5.79,1.57-3.62.25-7.27.01-10.91.1-1.75.04-2.42-.61-2.39-2.36.08-3.63.02-7.27.02-10.91h.01Zm10.15,8.99c1.02,0,2.03.05,3.05,0,2.91-.17,4.77-1.47,5.14-4.3.37-2.82.45-5.75.07-8.56-.46-3.41-2.24-4.71-5.74-4.94-1.77-.11-3.56.05-5.33-.08-1.84-.13-2.33.69-2.28,2.4.09,3.47.03,6.94.03,10.4q0,5.15,5.06,5.09Z"></path><path class="cls-1" d="m629.47,88.86v4.14c-3.47,0-6.85-.22-10.17.06-3.54.3-5.05,2.31-5.13,6.32h15.23v4.36h-15.01c-.64,4.31,1.29,6.81,5.17,6.91,3.2.09,6.41.02,9.83.02v4.14c-4.99.11-10.07.77-14.96-.93-3.19-1.11-5.01-3.72-5.82-6.9-1.07-4.2-.92-8.4.87-12.42,1.61-3.6,4.62-5.4,8.39-5.64,3.78-.25,7.58-.05,11.59-.05Z"></path><path class="cls-1" d="m827.08,88.81c.69,3.83.59,3.93-2.83,3.99-2.54.04-5.1-.03-7.61.31-3.29.45-4.92,2.85-4.44,6.42,4.16,0,8.37.05,12.58-.03,1.66-.03,2.72.11,2.69,2.24-.03,2.1-1.21,2.02-2.65,2.01-4.21-.03-8.43-.01-12.58-.01-.76,4.22,1.21,6.77,5.12,6.9,2.71.09,5.43.12,8.14.02,1.7-.06,1.96.8,1.93,2.18-.03,1.24-.15,2.18-1.76,2.1-3.71-.2-7.45-.16-11.14-.54-3.91-.41-6.56-2.8-7.72-6.47-1.28-4.04-1.27-8.21.08-12.26,1.49-4.47,4.89-6.61,9.43-6.85,3.54-.19,7.1-.04,10.76-.04Z"></path><path class="cls-1" d="m753.73,114.41c-4.04,1.28-5.06.97-6.31-2.75-.85-2.54-2.22-3.57-4.82-3.16-.83.13-1.71.12-2.54,0-4.13-.59-7,.24-8.09,5.04-.62,2.76-3.29,1-5.62,1.23,1.49-3.58,2.77-6.67,4.08-9.75,2.08-4.9,4.11-9.83,6.36-14.66.36-.78,1.73-1.44,2.68-1.5,1.44-.1,3.24-.81,4.15,1.32,3.32,7.78,6.71,15.52,10.05,23.29.12.28.04.64.06.94Zm-9.41-10.42c-1.45-3.6-2.73-6.77-4.01-9.94l-.73.12c-1.22,3.17-2.43,6.34-3.77,9.82h8.51Z"></path><path class="cls-1" d="m505.1,110.69c.81,4.15.73,4.31-2.97,4.23-3.21-.07-6.43-.14-9.61-.49-3.7-.41-6.25-2.66-7.49-6.07-1.57-4.34-1.6-8.83.06-13.17,1.59-4.16,4.94-6.15,9.26-6.36,3.54-.17,7.1-.04,10.88-.04v3.88c-2.49,0-5.01-.02-7.52,0-5.01.04-6.99,1.56-7.83,6.43-.34,1.97-.35,4.08-.05,6.06.63,4.13,2.31,5.45,6.5,5.51,2.94.04,5.89,0,8.77,0Z"></path><path class="cls-1" d="m644.38,92.91c-1.76,0-3.43,0-5.1,0-3.61-.02-3.64-.07-3.04-3.95,7.3,0,14.62,0,21.95,0,1.06,3.61.82,3.93-2.85,3.95q-5.39.03-5.39,5.3c0,5.41,0,10.82,0,16.54-1.12.07-2.1.09-3.07.19-1.78.19-2.35-.58-2.33-2.34.08-5.76.03-11.51.02-17.27,0-.66-.1-1.33-.19-2.41Z"></path></svg>